<svg width="21" height="20" viewBox="0 0 21 20" fill="none" xmlns="http://www.w3.org/2000/svg">
<path d="M1.90476 19.0476C1.38095 19.0476 0.93254 18.8611 0.559524 18.4881C0.186508 18.1151 0 17.6667 0 17.1429V5.71428C0 5.19048 0.186508 4.74206 0.559524 4.36905C0.93254 3.99603 1.38095 3.80952 1.90476 3.80952H4.90476L6.66667 1.90476H12.381V3.80952H7.5L5.76191 5.71428H1.90476V17.1429H17.1429V8.57143H19.0476V17.1429C19.0476 17.6667 18.8611 18.1151 18.4881 18.4881C18.1151 18.8611 17.6667 19.0476 17.1429 19.0476H1.90476ZM17.1429 5.71428V3.80952H15.2381V1.90476H17.1429V0H19.0476V1.90476H20.9524V3.80952H19.0476V5.71428H17.1429ZM9.52381 15.7143C10.7143 15.7143 11.7262 15.2976 12.5595 14.4643C13.3929 13.631 13.8095 12.619 13.8095 11.4286C13.8095 10.2381 13.3929 9.22619 12.5595 8.39286C11.7262 7.55952 10.7143 7.14286 9.52381 7.14286C8.33333 7.14286 7.32143 7.55952 6.4881 8.39286C5.65476 9.22619 5.2381 10.2381 5.2381 11.4286C5.2381 12.619 5.65476 13.631 6.4881 14.4643C7.32143 15.2976 8.33333 15.7143 9.52381 15.7143ZM9.52381 13.8095C8.85714 13.8095 8.29365 13.5794 7.83333 13.119C7.37302 12.6587 7.14286 12.0952 7.14286 11.4286C7.14286 10.7619 7.37302 10.1984 7.83333 9.73809C8.29365 9.27778 8.85714 9.04762 9.52381 9.04762C10.1905 9.04762 10.754 9.27778 11.2143 9.73809C11.6746 10.1984 11.9048 10.7619 11.9048 11.4286C11.9048 12.0952 11.6746 12.6587 11.2143 13.119C10.754 13.5794 10.1905 13.8095 9.52381 13.8095Z" fill="#636973"/>
</svg>
