<svg width="36" height="36" viewBox="0 0 36 36" fill="none" xmlns="http://www.w3.org/2000/svg">
<path d="M12 28C11.45 28 10.9792 27.8042 10.5875 27.4125C10.1958 27.0208 10 26.55 10 26V16C10 15.45 10.1958 14.9792 10.5875 14.5875C10.9792 14.1958 11.45 14 12 14H13V12C13 10.6167 13.4875 9.4375 14.4625 8.4625C15.4375 7.4875 16.6167 7 18 7C19.3833 7 20.5625 7.4875 21.5375 8.4625C22.5125 9.4375 23 10.6167 23 12V14H24C24.55 14 25.0208 14.1958 25.4125 14.5875C25.8042 14.9792 26 15.45 26 16V26C26 26.55 25.8042 27.0208 25.4125 27.4125C25.0208 27.8042 24.55 28 24 28H12ZM12 26H24V16H12V26ZM18 23C18.55 23 19.0208 22.8042 19.4125 22.4125C19.8042 22.0208 20 21.55 20 21C20 20.45 19.8042 19.9792 19.4125 19.5875C19.0208 19.1958 18.55 19 18 19C17.45 19 16.9792 19.1958 16.5875 19.5875C16.1958 19.9792 16 20.45 16 21C16 21.55 16.1958 22.0208 16.5875 22.4125C16.9792 22.8042 17.45 23 18 23ZM15 14H21V12C21 11.1667 20.7083 10.4583 20.125 9.875C19.5417 9.29167 18.8333 9 18 9C17.1667 9 16.4583 9.29167 15.875 9.875C15.2917 10.4583 15 11.1667 15 12V14Z" fill="#3A3939"/>
</svg>
