<svg width="36" height="37" viewBox="0 0 36 37" fill="none" xmlns="http://www.w3.org/2000/svg">
<path d="M9.75 27.0625V24.0625C9.75 23.0679 10.1451 22.1141 10.8483 21.4108C11.5516 20.7076 12.5054 20.3125 13.5 20.3125H22.5C23.4946 20.3125 24.4484 20.7076 25.1517 21.4108C25.8549 22.1141 26.25 23.0679 26.25 24.0625V27.0625M18 9.8125C17.0054 9.8125 16.0516 10.2076 15.3483 10.9108C14.6451 11.6141 14.25 12.5679 14.25 13.5625C14.25 14.5571 14.6451 15.5109 15.3483 16.2142C16.0516 16.9174 17.0054 17.3125 18 17.3125C18.9946 17.3125 19.9484 16.9174 20.6517 16.2142C21.3549 15.5109 21.75 14.5571 21.75 13.5625C21.75 12.5679 21.3549 11.6141 20.6517 10.9108C19.9484 10.2076 18.9946 9.8125 18 9.8125Z" stroke="#111111" stroke-width="1.5"/>
</svg>
